<svg width="6" height="3" viewBox="0 0 6 3" fill="none" xmlns="http://www.w3.org/2000/svg">
<path fill-rule="evenodd" clip-rule="evenodd" d="M3.32415 2.88547C3.23964 2.9588 3.12503 3 3.00554 3C2.88604 3 2.77144 2.9588 2.68693 2.88547L0.137579 0.672554C0.0945373 0.636469 0.0602054 0.593304 0.0365871 0.545578C0.0129688 0.497852 0.000536986 0.446521 1.7015e-05 0.394581C-0.000502956 0.34264 0.0108995 0.291129 0.0335587 0.243055C0.056218 0.19498 0.0896804 0.151303 0.131993 0.114574C0.174307 0.0778452 0.224623 0.0487988 0.280006 0.0291298C0.33539 0.00946089 0.394732 -0.000436582 0.454569 1.47699e-05C0.514407 0.000466121 0.573541 0.0112574 0.628523 0.0317588C0.683505 0.0522602 0.733232 0.0820612 0.774803 0.119423L3.00554 2.05577L5.23627 0.119423C5.32127 0.0481661 5.4351 0.00873724 5.55326 0.00962852C5.67142 0.0105198 5.78445 0.0516599 5.86801 0.124188C5.95156 0.196716 5.99896 0.29483 5.99998 0.397396C6.00101 0.499963 5.95559 0.598776 5.8735 0.672554L3.32415 2.88547Z" fill="#09244B"/>
</svg>
