<svg width="6" height="3" viewBox="0 0 6 3" fill="none" xmlns="http://www.w3.org/2000/svg">
<path fill-rule="evenodd" clip-rule="evenodd" d="M2.67585 0.114533C2.76036 0.0411976 2.87497 1.13019e-07 2.99446 1.23466e-07C3.11396 1.33913e-07 3.22856 0.0411976 3.31307 0.114533L5.86242 2.32745C5.90546 2.36353 5.93979 2.4067 5.96341 2.45442C5.98703 2.50215 5.99946 2.55348 5.99998 2.60542C6.0005 2.65736 5.9891 2.70887 5.96644 2.75695C5.94378 2.80502 5.91032 2.8487 5.86801 2.88543C5.82569 2.92215 5.77538 2.9512 5.71999 2.97087C5.66461 2.99054 5.60527 3.00044 5.54543 2.99999C5.48559 2.99953 5.42646 2.98874 5.37148 2.96824C5.3165 2.94774 5.26677 2.91794 5.2252 2.88058L2.99446 0.944228L0.763727 2.88058C0.678732 2.95183 0.564897 2.99126 0.446737 2.99037C0.328577 2.98948 0.215548 2.94834 0.131993 2.87581C0.048438 2.80328 0.0010429 2.70517 1.61264e-05 2.6026C-0.00101064 2.50004 0.0444127 2.40122 0.126503 2.32745L2.67585 0.114533Z" fill="#09244B"/>
</svg>
